<svg width="64" height="64" viewBox="0 0 64 64" fill="none" xmlns="http://www.w3.org/2000/svg">
<path opacity="0.4" d="M8 58.6666V17.9126C8 11.2173 8 7.8696 10.1098 6.20862C12.2197 4.54766 15.3265 5.44944 21.5401 7.25302L34.8733 11.1232C38.6229 12.2116 40.4979 12.7558 41.5821 14.239C42.6667 15.7223 42.6667 17.7425 42.6667 21.7828V58.6666H26.6667C29.1808 58.6666 30.4379 58.6666 31.2189 57.8856C32 57.1045 32 55.8474 32 53.3333V50.6666C32 48.1525 32 46.8954 31.2189 46.1144C30.4379 45.3333 29.1808 45.3333 26.6667 45.3333H24C21.4858 45.3333 20.2288 45.3333 19.4477 46.1144C18.6667 46.8954 18.6667 48.1525 18.6667 50.6666V53.3333C18.6667 55.8474 18.6667 57.1045 19.4477 57.8856C20.2288 58.6666 21.4858 58.6666 24 58.6666H8Z" fill="#1447E6"/>
<path d="M42.6666 26.6667L48.3984 28.3862C52.0602 29.4848 53.8912 30.0342 54.9456 31.4512C56 32.8683 56 34.78 56 38.603V58.6667" stroke="#1447E6" stroke-width="4" stroke-linejoin="round"/>
<path d="M21.3334 24H29.3334M21.3334 34.6667H29.3334" stroke="#1447E6" stroke-width="4" stroke-linecap="round" stroke-linejoin="round"/>
<path d="M32 58.6666V50.6666C32 48.1525 32 46.8954 31.2189 46.1144C30.4378 45.3333 29.1808 45.3333 26.6666 45.3333H24C21.4858 45.3333 20.2287 45.3333 19.4477 46.1144C18.6666 46.8954 18.6666 48.1525 18.6666 50.6666V58.6666" stroke="#1447E6" stroke-width="4" stroke-linejoin="round"/>
<path d="M26.6666 45.3333H24C21.4858 45.3333 20.2287 45.3333 19.4477 46.1144C18.6666 46.8954 18.6666 48.1525 18.6666 50.6666V53.3333C18.6666 55.8474 18.6666 57.1045 19.4477 57.8856C20.2287 58.6666 21.4858 58.6666 24 58.6666H26.6666C29.1808 58.6666 30.4378 58.6666 31.2189 57.8856C32 57.1045 32 55.8474 32 53.3333V50.6666C32 48.1525 32 46.8954 31.2189 46.1144C30.4378 45.3333 29.1808 45.3333 26.6666 45.3333Z" stroke="#1447E6" stroke-width="4" stroke-linejoin="round"/>
<path d="M5.33337 58.6667H58.6667" stroke="#1447E6" stroke-width="4" stroke-linecap="round"/>
<path d="M8 58.6667V17.9126C8 11.2173 8 7.86961 10.1098 6.20863C12.2197 4.54764 15.3265 5.44945 21.5401 7.25305L34.8733 11.1232C38.6229 12.2116 40.4979 12.7558 41.5821 14.2391C42.6667 15.7223 42.6667 17.7425 42.6667 21.7828V58.6667" stroke="#1447E6" stroke-width="4" stroke-linecap="round" stroke-linejoin="round"/>
</svg>
