<svg width="65" height="64" viewBox="0 0 65 64" fill="none" xmlns="http://www.w3.org/2000/svg">
<path d="M45.8333 54.6666V58.6666" stroke="#33817E" stroke-width="4" stroke-linecap="round" stroke-linejoin="round"/>
<path d="M19.1667 54.6666V58.6666" stroke="#33817E" stroke-width="4" stroke-linecap="round" stroke-linejoin="round"/>
<path d="M43.323 39.8016C36.2435 40.6512 28.7264 40.2557 22.3988 39.4413C17.8783 38.8592 15.618 38.5683 13.7446 36.8413C13.3705 36.4965 12.9345 36.0008 12.6403 35.5856C11.1667 33.5069 11.1667 30.9688 11.1667 25.8926C11.1667 21.6125 11.1667 19.4725 12.3243 18.0155C12.5767 17.6979 12.8646 17.41 13.1822 17.1576C14.6392 16 16.7792 16 21.0593 16H43.3262C48.1995 16 50.636 16 52.1816 17.4746C52.2422 17.5322 52.3011 17.5913 52.3587 17.6517C53.8334 19.1972 53.8334 21.6339 53.8334 26.5072C53.8334 31.7568 53.8334 34.3813 51.9315 36.6213C51.8694 36.6944 51.7664 36.8104 51.7011 36.8808C49.7038 39.036 47.5768 39.2912 43.323 39.8016Z" fill="#FECA05"/>
<path d="M11.1667 18.085C11.1667 16.3801 11.1667 15.5276 11.6303 14.4895C12.094 13.4515 12.5647 13.0295 13.5063 12.1857C16.5917 9.42076 22.7941 5.33337 32.5 5.33337C42.2059 5.33337 48.4083 9.42076 51.4936 12.1857C52.4352 13.0295 52.9062 13.4515 53.3696 14.4895C53.8334 15.5276 53.8334 16.3801 53.8334 18.085V37.3334C53.8334 44.8758 53.8334 48.647 51.4902 50.9902C49.147 53.3334 45.3758 53.3334 37.8334 53.3334H27.1667C19.6242 53.3334 15.853 53.3334 13.5098 50.9902C11.1667 48.647 11.1667 44.8758 11.1667 37.3334V18.085Z" stroke="#33817E" stroke-width="4" stroke-linejoin="round"/>
<path d="M11.1667 37.3334C11.1667 37.3334 21.1222 40 32.5 40C43.8779 40 53.8334 37.3334 53.8334 37.3334" stroke="#33817E" stroke-width="4" stroke-linecap="round" stroke-linejoin="round"/>
<path d="M12.5 46.6666H16.5" stroke="#33817E" stroke-width="4" stroke-linecap="round" stroke-linejoin="round"/>
<path d="M48.5 46.6666H52.5" stroke="#33817E" stroke-width="4" stroke-linecap="round" stroke-linejoin="round"/>
<path d="M29.8333 46.6666H35.1666" stroke="#FECA05" stroke-width="4" stroke-linecap="round" stroke-linejoin="round"/>
<path d="M11.1667 16H53.8334" stroke="#33817E" stroke-width="4" stroke-linejoin="round"/>
<path d="M5.83331 24V26.6667" stroke="#33817E" stroke-width="4" stroke-linecap="round" stroke-linejoin="round"/>
<path d="M59.1667 24V26.6667" stroke="#33817E" stroke-width="4" stroke-linecap="round" stroke-linejoin="round"/>
</svg>
