<svg width="16" height="16" viewBox="0 0 16 16" fill="none" xmlns="http://www.w3.org/2000/svg">
<g clip-path="url(#clip0_1700_522)">
<path fill-rule="evenodd" clip-rule="evenodd" d="M8.00001 3.00016C7.63188 3.00016 7.33335 2.70168 7.33335 2.3335V1.00016C7.33335 0.631973 7.63188 0.333496 8.00001 0.333496C8.36821 0.333496 8.66668 0.631973 8.66668 1.00016V2.3335C8.66668 2.70168 8.36821 3.00016 8.00001 3.00016ZM1.00004 7.3335C0.631851 7.3335 0.333374 7.63196 0.333374 8.00016C0.333374 8.36836 0.631851 8.66683 1.00004 8.66683H2.33337C2.70156 8.66683 3.00004 8.36836 3.00004 8.00016C3.00004 7.63196 2.70156 7.3335 2.33337 7.3335H1.00004ZM13.6667 7.3335C13.2985 7.3335 13 7.63196 13 8.00016C13 8.36836 13.2985 8.66683 13.6667 8.66683H15C15.3682 8.66683 15.6667 8.36836 15.6667 8.00016C15.6667 7.63196 15.3682 7.3335 15 7.3335H13.6667ZM7.33335 15.0002C7.33335 15.3684 7.63188 15.6668 8.00001 15.6668C8.36821 15.6668 8.66668 15.3684 8.66668 15.0002V13.6668C8.66668 13.2986 8.36821 13.0002 8.00001 13.0002C7.63188 13.0002 7.33335 13.2986 7.33335 13.6668V15.0002Z" fill="#101828"/>
<path d="M5.5 8C5.5 6.61929 6.61929 5.5 7.99997 5.5C9.38071 5.5 10.5 6.61929 10.5 8C10.5 9.38073 9.38071 10.5 7.99997 10.5C6.61929 10.5 5.5 9.38073 5.5 8Z" fill="#101828"/>
<path fill-rule="evenodd" clip-rule="evenodd" d="M8.00899 2.99984C5.24757 2.99984 3.00899 5.23841 3.00899 7.99984C3.00899 10.7612 5.24757 12.9998 8.00899 12.9998C10.7704 12.9998 13.009 10.7612 13.009 7.99984C13.009 5.23841 10.7704 2.99984 8.00899 2.99984ZM1.67566 7.99984C1.67566 4.50203 4.51119 1.6665 8.00899 1.6665C11.5068 1.6665 14.3423 4.50203 14.3423 7.99984C14.3423 11.4976 11.5068 14.3332 8.00899 14.3332C4.51119 14.3332 1.67566 11.4976 1.67566 7.99984Z" fill="#101828"/>
</g>
<defs>
<clipPath id="clip0_1700_522">
<rect width="16" height="16" fill="white"/>
</clipPath>
</defs>
</svg>
