<svg width="32" height="32" viewBox="0 0 32 32" fill="none" xmlns="http://www.w3.org/2000/svg">
<path d="M3.30746 6.25888C2.05065 7.89406 1.10296 9.77875 0.551147 11.8262H8.87477L3.30746 6.25888Z" fill="#0052B4"/>
<path d="M31.4486 11.8262C30.8968 9.77881 29.9491 7.89413 28.6923 6.25894L23.1251 11.8262H31.4486Z" fill="#0052B4"/>
<path d="M0.551147 20.174C1.10302 22.2214 2.05071 24.1061 3.30746 25.7412L8.87459 20.174H0.551147Z" fill="#0052B4"/>
<path d="M25.7411 3.30756C24.1059 2.05075 22.2213 1.10306 20.1738 0.551188V8.87475L25.7411 3.30756Z" fill="#0052B4"/>
<path d="M6.25879 28.6924C7.89398 29.9493 9.77866 30.8969 11.826 31.4488V23.1253L6.25879 28.6924Z" fill="#0052B4"/>
<path d="M11.826 0.551188C9.7786 1.10306 7.89391 2.05075 6.25879 3.3075L11.826 8.87469V0.551188Z" fill="#0052B4"/>
<path d="M20.1738 31.4488C22.2212 30.8969 24.1059 29.9493 25.741 28.6925L20.1738 23.1253V31.4488Z" fill="#0052B4"/>
<path d="M23.1251 20.174L28.6923 25.7413C29.9491 24.1061 30.8968 22.2214 31.4486 20.174H23.1251Z" fill="#0052B4"/>
</svg>
