<svg width="65" height="64" viewBox="0 0 65 64" fill="none" xmlns="http://www.w3.org/2000/svg">
<path d="M19.1667 18.6667C19.1667 11.3029 25.1362 5.33337 32.5 5.33337C39.8637 5.33337 45.8333 11.3029 45.8333 18.6667H56.5V53.3334C56.5 56.279 54.1123 58.6667 51.1667 58.6667H37.8333V48C37.8333 45.0544 35.4456 42.6667 32.5 42.6667C29.5544 42.6667 27.1667 45.0544 27.1667 48V58.6667H13.8333C10.8878 58.6667 8.5 56.279 8.5 53.3334V18.6667H19.1667Z" fill="#FECA05"/>
<path d="M8.5 18.6666V48C8.5 53.0282 8.5 55.5424 10.0621 57.1045C11.6242 58.6666 14.1383 58.6666 19.1667 58.6666H45.8333C50.8616 58.6666 53.3757 58.6666 54.9379 57.1045C56.5 55.5424 56.5 53.0282 56.5 48V18.6666" stroke="#33817E" stroke-width="4" stroke-linecap="round" stroke-linejoin="round"/>
<path d="M45.8333 18.6667C45.8333 11.3029 39.8637 5.33337 32.5 5.33337C25.1362 5.33337 19.1666 11.3029 19.1666 18.6667" stroke="#33817E" stroke-width="4" stroke-linecap="round" stroke-linejoin="round"/>
<path d="M37.8333 58.6669V48C37.8333 45.0544 35.4456 42.6666 32.5 42.6666C29.5544 42.6666 27.1666 45.0544 27.1666 48V58.6669" stroke="#33817E" stroke-width="4" stroke-linecap="round" stroke-linejoin="round"/>
<path d="M24.5 8H12.4257C11.5978 8 10.7596 8.21891 10.095 8.87728C8.11655 10.8372 6.97497 14.1003 5.83337 18.6667H19.1667M40.5 8H52.5744C53.4024 8 54.2406 8.21891 54.9051 8.87728C56.8835 10.8372 58.0251 14.1003 59.1667 18.6667H45.8334" stroke="#33817E" stroke-width="4" stroke-linecap="round" stroke-linejoin="round"/>
<path d="M16.5 29.3334H17.8333M16.5 38.6667H17.8333" stroke="#33817E" stroke-width="4" stroke-linecap="round" stroke-linejoin="round"/>
<path d="M47.1666 29.3334H48.5M47.1666 38.6667H48.5" stroke="#33817E" stroke-width="4" stroke-linecap="round" stroke-linejoin="round"/>
<path d="M28.5 21.3334V25.3334M28.5 25.3334V29.3334M28.5 25.3334H36.5M36.5 21.3334V25.3334M36.5 25.3334V29.3334" stroke="#33817E" stroke-width="4" stroke-linecap="round" stroke-linejoin="round"/>
</svg>
