<svg width="16" height="16" viewBox="0 0 16 16" fill="none" xmlns="http://www.w3.org/2000/svg">
<path d="M6.40383 3.20849C7.19041 2.84716 7.58368 2.6665 8.00001 2.6665C8.41634 2.6665 8.80961 2.84716 9.59621 3.20849L12.8582 4.70693C14.0639 5.26075 14.6667 5.53766 14.6667 5.99984C14.6667 6.46201 14.0639 6.7389 12.8582 7.29277L9.59621 8.79117C8.80961 9.1525 8.41634 9.33317 8.00001 9.33317C7.58368 9.33317 7.19041 9.1525 6.40383 8.79117L3.14181 7.29277C1.93616 6.7389 1.33334 6.46201 1.33334 5.99984C1.33334 5.53766 1.93616 5.26075 3.14181 4.70693L6.40383 3.20849Z" stroke="white" stroke-linecap="round" stroke-linejoin="round"/>
<path d="M13.4885 9C14.2739 9.37467 14.6667 9.627 14.6667 10.0001C14.6667 10.4623 14.0639 10.7391 12.8582 11.293L9.59621 12.7914C8.80961 13.1527 8.41634 13.3334 8.00001 13.3334C7.58368 13.3334 7.19041 13.1527 6.40383 12.7914L3.14181 11.293C1.93616 10.7391 1.33334 10.4623 1.33334 10.0001C1.33334 9.627 1.72607 9.37467 2.51152 9" stroke="white" stroke-linecap="round" stroke-linejoin="round"/>
</svg>
