<svg width="64" height="64" viewBox="0 0 64 64" fill="none" xmlns="http://www.w3.org/2000/svg">
<path d="M58.6666 26.6666V24.58C58.6666 19.4076 58.6666 16.8215 57.1045 15.2146C55.5424 13.6078 53.0282 13.6078 48 13.6078H42.457C40.0106 13.6078 39.9904 13.6031 37.7906 12.5022L28.9064 8.05635C25.1969 6.20009 23.3422 5.27195 21.3663 5.33646C19.3905 5.40097 17.5967 6.44819 14.0092 8.54267L10.7349 10.4543C8.09969 11.9928 6.78209 12.762 6.05769 14.0417C5.33331 15.3214 5.33331 16.8798 5.33331 19.9966V41.9085C5.33331 46.0037 5.33331 48.0514 6.24601 49.1912C6.85334 49.9493 7.70441 50.4592 8.64531 50.6282C10.0593 50.8821 11.7906 49.8714 15.253 47.8498C17.6041 46.4773 19.8669 45.0517 22.6796 45.4384C25.0365 45.7621 27.2266 47.2493 29.3333 48.3034" stroke="#FFB900" stroke-width="4" stroke-linecap="round" stroke-linejoin="round"/>
<path d="M21.3333 5.33331V45.3333" stroke="#FFB900" stroke-width="4" stroke-linejoin="round"/>
<path d="M40 13.3333V25.3333" stroke="#FFB900" stroke-width="4" stroke-linecap="round" stroke-linejoin="round"/>
<path opacity="0.4" d="M10.7349 10.4543L14.0092 8.54267C17.5767 6.45987 19.3704 5.41267 21.3333 5.33763L21.3663 5.33646C23.3422 5.27195 25.1969 6.20009 28.9064 8.05635L37.7906 12.5022C38.8709 13.0428 39.4256 13.3191 40 13.4603C40.5952 13.6066 41.212 13.6078 42.457 13.6078H48C53.0282 13.6078 55.5424 13.6078 57.1045 15.2146C58.6666 16.8215 58.6666 19.4076 58.6666 24.58V41.2941L58.4757 41.4757C58.3277 40.7306 58.0904 39.9637 57.7523 39.1728C55.8813 34.7989 51.3901 32 46.6669 32C41.9437 32 37.4525 34.7989 35.5816 39.1728C34.0677 42.7122 34.5744 45.7698 36.0669 48.5072L29.3333 48.3034C28.836 48.0546 28.3341 47.7816 27.8264 47.5056C26.1833 46.612 24.4801 45.6858 22.6796 45.4384C19.9985 45.0698 17.8171 46.348 15.5824 47.6571C15.4728 47.7213 15.363 47.7859 15.253 47.8498C11.7907 49.8714 10.0593 50.8821 8.64531 50.6282C7.70441 50.4592 6.85334 49.9493 6.24601 49.1912C5.33331 48.0514 5.33331 46.0037 5.33331 41.9085V19.9966C5.33331 16.8798 5.33331 15.3214 6.05769 14.0417C6.78209 12.762 8.09969 11.9928 10.7349 10.4543Z" fill="#FFB900"/>
<path d="M48.8221 57.8227C48.244 58.364 47.4712 58.6667 46.6669 58.6667C45.8627 58.6667 45.0899 58.364 44.5117 57.8227C39.2168 52.8347 32.1213 47.2627 35.5816 39.1728C37.4525 34.7989 41.9437 32 46.6669 32C51.3901 32 55.8813 34.7989 57.7523 39.1728C61.2083 47.2523 54.1301 52.8517 48.8221 57.8227Z" stroke="#FFB900" stroke-width="4"/>
<path d="M46.6667 44H46.6907" stroke="#FFB900" stroke-width="4" stroke-linecap="round" stroke-linejoin="round"/>
</svg>
