<svg width="64" height="64" viewBox="0 0 64 64" fill="none" xmlns="http://www.w3.org/2000/svg">
<path d="M18.6667 25.3333C18.6667 29.0152 15.6819 32 12 32C8.31815 32 5.33337 29.0152 5.33337 25.3333C5.33337 21.6514 8.31815 18.6666 12 18.6666C15.6819 18.6666 18.6667 21.6514 18.6667 25.3333Z" fill="#FECA05"/>
<path d="M18.6667 25.3334C18.6667 29.0152 15.6819 32 12 32C8.31815 32 5.33337 29.0152 5.33337 25.3334C5.33337 21.6515 8.31815 18.6667 12 18.6667C15.6819 18.6667 18.6667 21.6515 18.6667 25.3334ZM18.6667 25.3334V5.33337C19.5556 6.66671 20.2667 12.2667 26.6667 13.3334" stroke="#33817E" stroke-width="4" stroke-linecap="round" stroke-linejoin="round"/>
<path d="M28 58.6667C31.6819 58.6667 34.6667 55.6819 34.6667 52C34.6667 48.3181 31.6819 45.3334 28 45.3334C24.3181 45.3334 21.3334 48.3181 21.3334 52C21.3334 55.6819 24.3181 58.6667 28 58.6667Z" fill="#FECA05"/>
<path d="M28 58.6667C31.6819 58.6667 34.6667 55.6819 34.6667 52C34.6667 48.3181 31.6819 45.3334 28 45.3334C24.3181 45.3334 21.3334 48.3181 21.3334 52C21.3334 55.6819 24.3181 58.6667 28 58.6667Z" stroke="#33817E" stroke-width="4"/>
<path d="M53.3333 53.3333C56.2789 53.3333 58.6667 50.9455 58.6667 48C58.6667 45.0544 56.2789 42.6666 53.3333 42.6666C50.3878 42.6666 48 45.0544 48 48C48 50.9455 50.3878 53.3333 53.3333 53.3333Z" fill="#FECA05"/>
<path d="M53.3333 53.3333C56.2789 53.3333 58.6667 50.9455 58.6667 48C58.6667 45.0544 56.2789 42.6666 53.3333 42.6666C50.3878 42.6666 48 45.0544 48 48C48 50.9455 50.3878 53.3333 53.3333 53.3333Z" stroke="#33817E" stroke-width="4"/>
<path d="M34.6666 51.9999V29.3333C34.6666 26.9066 34.6666 25.6933 35.3242 24.9399C35.9818 24.1864 37.3168 24.0043 39.9864 23.64C48.0226 22.5435 53.8701 19.1945 56.9856 17.1449C57.7328 16.6535 58.1061 16.4078 58.3864 16.5589C58.6666 16.71 58.6666 17.1514 58.6666 18.0342V47.8023" stroke="#33817E" stroke-width="4" stroke-linecap="round" stroke-linejoin="round"/>
<path d="M34.6666 34.6666C47.4666 34.6666 56 28.4445 58.6666 26.6666" stroke="#33817E" stroke-width="4" stroke-linecap="round" stroke-linejoin="round"/>
</svg>
