<svg width="65" height="64" viewBox="0 0 65 64" fill="none" xmlns="http://www.w3.org/2000/svg">
<path d="M13.5972 32H51.4029C55.6771 32 57.2429 32.9885 56.1765 37.2856C54.2955 44.8656 48.9691 46.7483 44.0477 51.6957C42.8517 52.8984 44.7128 54.6752 44.7139 55.9979C44.7157 58.488 42.3475 58.6667 40.4611 58.6667H24.5389C22.6525 58.6667 20.2842 58.488 20.2862 55.9979C20.2872 54.7032 22.0925 52.8424 20.9522 51.6957C16.0309 46.7483 10.7046 44.8656 8.82341 37.2856C7.75696 32.9885 9.32285 32 13.5972 32Z" fill="#FECA05"/>
<path d="M48.5 32C48.5 28.3182 45.5152 25.3334 41.8333 25.3334C38.1515 25.3334 35.1667 28.3182 35.1667 32" stroke="#FECA05" stroke-width="4" stroke-linecap="round"/>
<path d="M16.5 8.00004V32M23.1667 6.66671V20M29.8333 5.33337V20" stroke="#FECA05" stroke-width="4" stroke-linecap="round" stroke-linejoin="round"/>
<path d="M11.1667 12L16.5 11.1667M53.8333 5.33337L36.5 8.04169M11.1667 18.6667L16.5 18.3334M53.8333 16L36.5 17.0834" stroke="#33817E" stroke-width="4" stroke-linecap="round" stroke-linejoin="round"/>
<path d="M13.5972 32H51.4029C55.6771 32 57.2429 32.9885 56.1765 37.2856C54.2955 44.8656 48.9691 46.7483 44.0477 51.6957C42.8517 52.8984 44.7128 54.6752 44.7139 55.9979C44.7157 58.488 42.3475 58.6667 40.4611 58.6667H24.5389C22.6525 58.6667 20.2842 58.488 20.2862 55.9979C20.2872 54.7032 22.0925 52.8424 20.9522 51.6957C16.0309 46.7483 10.7046 44.8656 8.82341 37.2856C7.75696 32.9885 9.32285 32 13.5972 32Z" stroke="#33817E" stroke-width="4" stroke-linejoin="round"/>
</svg>
