<svg width="64" height="64" viewBox="0 0 64 64" fill="none" xmlns="http://www.w3.org/2000/svg">
<path opacity="0.4" d="M16 56.3416H25.3333L27.7365 43.6413H35.9997L38.6667 56.3416H48V29.2379L16 29.2318V56.3416Z" fill="#009966"/>
<path d="M16 29.2312V56.3411M48 29.2374V56.3411M25.3333 56.3411L26.684 48.2323C27.0029 46.3171 27.1624 45.3598 27.5901 44.652C28.6523 42.8934 30.3581 42.9995 32 42.9995C33.6419 42.9995 35.3477 42.8934 36.4099 44.652C36.8376 45.3598 36.9971 46.3171 37.316 48.2323L38.6667 56.3411M8 56.3411H56M18.9877 29.6243C15.5085 29.6243 10.4263 27.9784 8.09269 21.7024C14.2312 21.35 27.2843 19.8905 32.0117 5.6745C36.9427 20.1127 49.792 21.35 55.9304 21.7024C53.5968 27.9784 48.5147 29.6243 45.0355 29.6243H18.9877Z" stroke="#009966" stroke-width="4" stroke-linecap="round" stroke-linejoin="round"/>
</svg>
