<svg width="22" height="22" viewBox="0 0 22 22" fill="none" xmlns="http://www.w3.org/2000/svg">
<g filter="url(#filter0_d_1667_43425)">
<path d="M8.64886 1.7082C10.0508 0.689629 11.9492 0.689628 13.3511 1.7082L19.1105 5.89261C20.5124 6.91119 21.0991 8.71665 20.5636 10.3647L18.3637 17.1353C17.8282 18.7833 16.2924 19.8992 14.5595 19.8992H7.44053C5.70763 19.8992 4.1718 18.7833 3.63631 17.1353L1.43643 10.3647C0.900937 8.71665 1.48757 6.91119 2.88952 5.89261L8.64886 1.7082Z" fill="#00A6F4"/>
<path d="M9.53027 2.92188C10.4065 2.28526 11.5935 2.28527 12.4697 2.92188L18.2285 7.10645C19.1047 7.74306 19.4714 8.87131 19.1367 9.90137L16.9375 16.6719C16.6028 17.7019 15.6426 18.3994 14.5596 18.3994H7.44043C6.35741 18.3994 5.39718 17.7019 5.0625 16.6719L2.86328 9.90137C2.5286 8.87131 2.89527 7.74306 3.77148 7.10645L9.53027 2.92188Z" stroke="white" stroke-width="3"/>
</g>
<defs>
<filter id="filter0_d_1667_43425" x="-1.75961" y="-2.05566" width="25.5192" height="24.9551" filterUnits="userSpaceOnUse" color-interpolation-filters="sRGB">
<feFlood flood-opacity="0" result="BackgroundImageFix"/>
<feColorMatrix in="SourceAlpha" type="matrix" values="0 0 0 0 0 0 0 0 0 0 0 0 0 0 0 0 0 0 127 0" result="hardAlpha"/>
<feMorphology radius="1" operator="dilate" in="SourceAlpha" result="effect1_dropShadow_1667_43425"/>
<feOffset/>
<feGaussianBlur stdDeviation="1"/>
<feComposite in2="hardAlpha" operator="out"/>
<feColorMatrix type="matrix" values="0 0 0 0 0 0 0 0 0 0 0 0 0 0 0 0 0 0 0.16 0"/>
<feBlend mode="normal" in2="BackgroundImageFix" result="effect1_dropShadow_1667_43425"/>
<feBlend mode="normal" in="SourceGraphic" in2="effect1_dropShadow_1667_43425" result="shape"/>
</filter>
</defs>
</svg>
