<svg width="22" height="22" viewBox="0 0 22 22" fill="none" xmlns="http://www.w3.org/2000/svg">
<g filter="url(#filter0_d_1667_43334)">
<path d="M8.17157 2.82843C9.73367 1.26633 12.2663 1.26633 13.8284 2.82843L19.1716 8.17157C20.7337 9.73367 20.7337 12.2663 19.1716 13.8284L13.8284 19.1716C12.2663 20.7337 9.73367 20.7337 8.17157 19.1716L2.82843 13.8284C1.26633 12.2663 1.26633 9.73367 2.82843 8.17157L8.17157 2.82843Z" fill="#FFB900"/>
<path d="M9.23242 3.88867C10.2087 2.91277 11.7913 2.91277 12.7676 3.88867L18.1113 9.23242C19.0872 10.2087 19.0872 11.7913 18.1113 12.7676L12.7676 18.1113C11.7913 19.0872 10.2087 19.0872 9.23242 18.1113L3.88867 12.7676C2.91277 11.7913 2.91277 10.2087 3.88867 9.23242L9.23242 3.88867Z" stroke="white" stroke-width="3"/>
</g>
<defs>
<filter id="filter0_d_1667_43334" x="-1.34314" y="-1.34326" width="24.6863" height="24.6865" filterUnits="userSpaceOnUse" color-interpolation-filters="sRGB">
<feFlood flood-opacity="0" result="BackgroundImageFix"/>
<feColorMatrix in="SourceAlpha" type="matrix" values="0 0 0 0 0 0 0 0 0 0 0 0 0 0 0 0 0 0 127 0" result="hardAlpha"/>
<feMorphology radius="1" operator="dilate" in="SourceAlpha" result="effect1_dropShadow_1667_43334"/>
<feOffset/>
<feGaussianBlur stdDeviation="1"/>
<feComposite in2="hardAlpha" operator="out"/>
<feColorMatrix type="matrix" values="0 0 0 0 0 0 0 0 0 0 0 0 0 0 0 0 0 0 0.16 0"/>
<feBlend mode="normal" in2="BackgroundImageFix" result="effect1_dropShadow_1667_43334"/>
<feBlend mode="normal" in="SourceGraphic" in2="effect1_dropShadow_1667_43334" result="shape"/>
</filter>
</defs>
</svg>
