<svg width="24" height="24" viewBox="0 0 24 24" fill="none" xmlns="http://www.w3.org/2000/svg">
<path fill-rule="evenodd" clip-rule="evenodd" d="M1.25 11C1.25 5.61523 5.61523 1.25 11 1.25C16.3848 1.25 20.75 5.61523 20.75 11C20.75 13.4224 19.8666 15.6385 18.4043 17.3437L22.5303 21.4697C22.8232 21.7626 22.8232 22.2374 22.5303 22.5303C22.2374 22.8232 21.7626 22.8232 21.4697 22.5303L17.3437 18.4043C15.6385 19.8666 13.4224 20.75 11 20.75C5.61523 20.75 1.25 16.3848 1.25 11ZM11 2.75C6.44365 2.75 2.75 6.44365 2.75 11C2.75 15.5564 6.44365 19.25 11 19.25C15.5564 19.25 19.25 15.5564 19.25 11C19.25 6.44365 15.5564 2.75 11 2.75Z" fill="#101828"/>
</svg>
