<svg width="65" height="64" viewBox="0 0 65 64" fill="none" xmlns="http://www.w3.org/2000/svg">
<path d="M55.0859 39.9635C55.0819 39.9878 55.0771 40.0123 55.0728 40.0366C54.8859 40.0144 54.6952 40 54.5 40C53.1 40 51.7 40.4718 49.8333 42.3542C47.9667 40.4718 46.5667 40 45.1667 40C42.4653 40 40.5005 42.1883 40.5 44.888C40.5 47.9339 43.4019 51.0352 45.9688 53.1848C44.216 53.3299 42.0504 53.3334 39.3021 53.3334H26.4115C19.9383 53.3334 16.7015 53.3331 14.4635 51.4376C12.2256 49.5416 11.6918 46.3488 10.6276 39.9635L7.52344 21.3334H58.1901L55.0859 39.9635Z" fill="#FECA05"/>
<path d="M32.5 32V42.6667" stroke="#33817E" stroke-width="4" stroke-linecap="round" stroke-linejoin="round"/>
<path d="M21.8334 32V42.6667" stroke="#33817E" stroke-width="4" stroke-linecap="round" stroke-linejoin="round"/>
<path d="M60.5 21.3334H4.5" stroke="#33817E" stroke-width="4" stroke-linecap="round" stroke-linejoin="round"/>
<path d="M48.5 21.3333L40.5 8" stroke="#FECA05" stroke-width="4" stroke-linecap="round" stroke-linejoin="round"/>
<path d="M16.5 21.3333L24.5 8" stroke="#FECA05" stroke-width="4" stroke-linecap="round" stroke-linejoin="round"/>
<path d="M49.8333 56C49.8333 56 40.5 50.3531 40.5 44.8888C40.5 42.1888 42.4648 40 45.1667 40C46.5667 40 47.9667 40.4707 49.8333 42.3531C51.7 40.4707 53.1 40 54.5 40C57.2019 40 59.1667 42.1888 59.1667 44.8888C59.1667 50.3531 49.8333 56 49.8333 56Z" stroke="#33817E" stroke-width="4" stroke-linecap="round" stroke-linejoin="round"/>
<path d="M35.1666 53.3334H26.054C19.5806 53.3334 16.3439 53.3334 14.106 51.4376C11.868 49.5416 11.3359 46.3491 10.2717 39.9638L7.16663 21.3334H57.8333L56.0554 32" stroke="#33817E" stroke-width="4" stroke-linecap="round" stroke-linejoin="round"/>
</svg>
