<svg width="64" height="64" viewBox="0 0 64 64" fill="none" xmlns="http://www.w3.org/2000/svg">
<path opacity="0.4" d="M28.5824 18.2955L40 42.6642C34.2222 42.6642 32.4638 39.6165 26.4348 36.5688C21.6116 34.1309 14.8793 34.537 12.8696 35.045L20.9531 29.3301C21.7756 28.7485 22.1869 28.4578 22.3184 28.0152C22.4498 27.5725 22.2639 27.1045 21.892 26.1683L20.7605 23.3199C20.3375 22.2549 20.1259 21.7224 19.7436 21.336C19.6104 21.2014 19.4632 21.0814 19.3046 20.978C18.8493 20.6812 18.2851 20.5811 17.1567 20.3809L8.48844 18.8429C6.66324 18.5191 5.33337 16.9325 5.33337 15.0788C5.33337 12.75 7.39785 10.9623 9.70273 11.2952L21.4248 12.9882C23.5361 13.2931 24.5918 13.4456 25.4723 13.9488C25.8393 14.1586 26.1801 14.4114 26.4875 14.7016C27.2248 15.398 27.6774 16.3638 28.5824 18.2955Z" fill="#00A6F4"/>
<path d="M28.5824 18.2955L40 42.6642C34.2222 42.6642 32.4638 39.6165 26.4348 36.5688C21.6116 34.1309 14.8793 34.537 12.8696 35.045L20.9531 29.3301C21.7756 28.7485 22.1869 28.4578 22.3184 28.0152C22.4498 27.5725 22.2639 27.1045 21.892 26.1683L20.7605 23.3199C20.3375 22.2549 20.1259 21.7224 19.7436 21.336C19.6104 21.2014 19.4632 21.0814 19.3046 20.978C18.8493 20.6812 18.2851 20.5811 17.1567 20.3809L8.48844 18.8429C6.66324 18.5191 5.33337 16.9325 5.33337 15.0788C5.33337 12.75 7.39785 10.9623 9.70273 11.2952L21.4248 12.9882C23.5361 13.2931 24.5918 13.4456 25.4723 13.9488C25.8393 14.1586 26.1801 14.4114 26.4875 14.7016C27.2248 15.398 27.6774 16.3638 28.5824 18.2955Z" stroke="#00A6F4" stroke-width="4" stroke-linecap="round" stroke-linejoin="round"/>
<path d="M50.6666 34.6721C55.0849 34.6721 58.6666 31.0903 58.6666 26.6721C58.6666 22.2538 55.0849 18.6721 50.6666 18.6721C46.2483 18.6721 42.6666 22.2538 42.6666 26.6721C42.6666 31.0903 46.2483 34.6721 50.6666 34.6721Z" stroke="#00A6F4" stroke-width="4" stroke-linecap="round" stroke-linejoin="round"/>
<path d="M5.33337 48.2248C8.1482 38.8072 20.716 43.1296 30.6667 48.2248C40.6174 53.32 50.6667 56.5621 56 48.2248" stroke="#00A6F4" stroke-width="4" stroke-linecap="round" stroke-linejoin="round"/>
</svg>
