<svg width="64" height="64" viewBox="0 0 64 64" fill="none" xmlns="http://www.w3.org/2000/svg">
<path d="M58.6667 23.6772C58.4883 19.565 57.9883 16.8879 56.5875 14.7702C55.7816 13.5519 54.7808 12.4922 53.6299 11.6391C50.5192 9.33331 46.1307 9.33331 37.3542 9.33331H26.6482C17.8714 9.33331 13.4831 9.33331 10.3724 11.6391C9.2215 12.4922 8.22049 13.5519 7.41462 14.7702C6.01406 16.8877 5.51406 19.5644 5.33558 23.6758C5.30505 24.3789 5.91065 24.9166 6.57419 24.9166C10.2696 24.9166 13.2653 28.088 13.2653 32C13.2653 35.912 10.2696 39.0832 6.57419 39.0832C5.91065 39.0832 5.30505 39.621 5.33558 40.3242C5.51406 44.4357 6.01406 47.1122 7.41462 49.2298C8.22049 50.448 9.2215 51.5077 10.3724 52.3608C13.4831 54.6666 17.8714 54.6666 26.6482 54.6666H37.3542C46.1307 54.6666 50.5192 54.6666 53.6299 52.3608C54.7808 51.5077 55.7816 50.448 56.5875 49.2298C57.9883 47.112 58.4883 44.4349 58.6667 40.3229V23.6772Z" stroke="#E31400" stroke-width="4" stroke-linejoin="round"/>
<path opacity="0.4" fill-rule="evenodd" clip-rule="evenodd" d="M56.5891 14.7702C57.9899 16.8879 58.4899 19.565 58.6683 23.6772V40.3229C58.4899 44.4349 57.9899 47.112 56.5891 49.2299C55.7832 50.448 54.7821 51.5077 53.6312 52.3608C50.5205 54.6666 46.1323 54.6666 37.3555 54.6666H26.6497C17.8729 54.6666 13.4845 54.6666 10.3738 52.3608C9.22296 51.5077 8.22195 50.448 7.41611 49.2299C6.01552 47.1123 5.51552 44.4357 5.33704 40.3242C5.30654 39.621 5.91211 39.0832 6.57566 39.0832C10.2711 39.0832 13.2668 35.912 13.2668 32C13.2668 28.088 10.2711 24.9166 6.57566 24.9166C5.91211 24.9166 5.30654 24.3789 5.33704 23.6758C5.51552 19.5644 6.01552 16.8877 7.41611 14.7702C8.22195 13.5519 9.22296 12.4922 10.3738 11.6391C13.4845 9.33331 17.8729 9.33331 26.6497 9.33331H37.3555C46.1323 9.33331 50.5205 9.33331 53.6312 11.6391C54.7821 12.4922 55.7832 13.5519 56.5891 14.7702ZM41.4581 27.9946L40.0504 25.1556C39.2904 23.6151 38.0424 23.6151 37.2747 25.1556L35.8667 27.9946C35.6747 28.3898 35.1629 28.7688 34.7389 28.8413L32.1872 29.2688C30.5552 29.5432 30.1795 30.7368 31.3472 31.9141L33.3309 33.9144C33.6669 34.253 33.8509 34.9064 33.7469 35.3741L33.1789 37.8501C32.7312 39.8021 33.7709 40.5682 35.4827 39.544L37.8744 38.1165C38.3144 37.8584 39.0264 37.8584 39.4584 38.1165L41.8501 39.544C43.5699 40.5682 44.6019 39.8101 44.1539 37.8501L43.5859 35.3741C43.4819 34.9064 43.6659 34.253 44.0019 33.9144L45.9856 31.9141C47.1616 30.7368 46.7776 29.5432 45.1456 29.2688L42.5939 28.8413C42.1621 28.7688 41.6501 28.3898 41.4581 27.9946Z" fill="#E31400"/>
<path d="M40.0488 25.1556L41.4565 27.9947C41.6485 28.3899 42.1605 28.7688 42.5925 28.8414L45.1443 29.2688C46.776 29.5432 47.16 30.7368 45.984 31.9142L44.0002 33.9144C43.6642 34.2531 43.4803 34.9064 43.5843 35.3742L44.1523 37.8502C44.6003 39.8102 43.5683 40.5683 41.8485 39.544L39.4568 38.1166C39.0248 37.8584 38.3131 37.8584 37.8731 38.1166L35.4813 39.544C33.7696 40.5683 32.7296 39.8022 33.1776 37.8502L33.7456 35.3742C33.8493 34.9064 33.6656 34.2531 33.3296 33.9144L31.3458 31.9142C30.1778 30.7368 30.5538 29.5432 32.1856 29.2688L34.7373 28.8414C35.1613 28.7688 35.6733 28.3899 35.8653 27.9947L37.273 25.1556C38.041 23.6152 39.2888 23.6152 40.0488 25.1556Z" stroke="#E31400" stroke-width="4" stroke-linecap="round" stroke-linejoin="round"/>
<path d="M21.3333 45.3333V54.6666" stroke="#E31400" stroke-width="4" stroke-linecap="round" stroke-linejoin="round"/>
<path d="M21.3333 9.33331V18.6666" stroke="#E31400" stroke-width="4" stroke-linecap="round" stroke-linejoin="round"/>
</svg>
