<svg width="65" height="64" viewBox="0 0 65 64" fill="none" xmlns="http://www.w3.org/2000/svg">
<path d="M5.83594 56.5152C7.66324 59.3182 10.0254 59.3182 11.8972 56.5152C17.9155 47.3088 23.648 63.1371 27.8973 56.619C34.3773 46.8518 39.0381 63.7915 43.8973 56.5152C50.2339 46.8219 54.1813 62.8736 59.1693 57.5579" stroke="#33817E" stroke-width="4" stroke-linecap="round"/>
<path d="M32.5027 5.33337C32.764 5.33337 33.0243 5.33783 33.2835 5.34668C45.4405 5.76169 55.1693 15.8304 55.1693 28.1904C55.1693 33.0216 53.6829 37.5024 51.1464 41.1939L50.636 39.619C49.6669 37.4635 47.4875 34.4398 44.208 32.1302L43.836 32.7619C40.9792 38.7627 29.5776 44.9715 18.3359 45.3334C14.2271 42.2259 11.6078 38.2011 10.4783 33.6203C10.05 31.8838 9.83594 30.0672 9.83594 28.1904C9.83594 15.5668 19.9842 5.33337 32.5027 5.33337Z" fill="#FECA05"/>
<path d="M47.4851 45.36C49.3376 43.7485 53.6885 39.2328 54.8032 32.2434C55.8376 27.9496 55.2312 18.4106 48.2704 11.8601C43.6349 7.22753 31.3427 0.493468 17.9701 10.6176C15.297 12.772 10.4206 18.7021 9.86543 26.494C9.31023 34.2858 12.6986 39.593 14.4243 41.6802C15.2718 42.597 15.6877 43.1346 16.5731 43.936C17.3364 44.6272 17.6534 44.8538 18.2737 45.3533C22.0232 45.4941 30.4741 43.7469 36.1584 40.1176C37.4189 39.5253 40.6368 37.4773 43.2579 33.8405M11.6287 34.1416C14.7788 35.4008 22.8742 36.8824 30.6912 29.6189M31.2771 28.9994C35.1053 28.1949 44.7389 28.9994 50.7243 39.4848M21.0274 9.30273C18.075 14.4881 17.3883 28.2712 21.6449 33.4M31.5603 29.0384C29.5517 24.1415 28.0952 12.1581 32.756 5.99665M31.2024 16.9102C35.8603 16.206 47.3693 18.4588 55.1411 28.0037" stroke="#33817E" stroke-width="4" stroke-linecap="round" stroke-linejoin="round"/>
</svg>
