<svg width="65" height="64" viewBox="0 0 65 64" fill="none" xmlns="http://www.w3.org/2000/svg">
<path d="M24.7184 41.8955L20.0185 38.4515C17.6499 36.716 13.872 37.5187 11.1667 37.5187V53.4051L28.0491 58.4478C29.4371 58.8624 30.9259 58.6835 32.1878 57.9507L53.1334 45.7859C53.9235 45.327 54.0739 44.2048 53.4347 43.5366L51.6459 41.6667C50.1883 40.1427 48.0318 39.6107 46.076 40.2923L35.1667 45.3334L34.9 45.4467C34.224 43.452 32.3499 42.1262 30.304 42.4475C28.3555 42.7534 26.4645 43.175 24.7184 41.8955Z" fill="#FECA05"/>
<path d="M11.1667 37.5187C13.872 37.5187 17.6499 36.716 20.0185 38.4515L24.7184 41.8955C26.4645 43.175 28.3555 42.7534 30.304 42.4475C32.8704 42.0446 35.1667 44.2334 35.1667 47.0832C35.1667 47.8619 29.6392 49.8414 28.8403 50.2176C27.271 50.9568 25.4679 50.775 24.0472 49.7339L18.7456 45.8491" stroke="#33817E" stroke-width="4" stroke-linecap="round" stroke-linejoin="round"/>
<path d="M35.1667 45.3333L46.076 40.2922C48.0318 39.6106 50.1883 40.1426 51.6459 41.6666L53.4347 43.5365C54.0739 44.2047 53.9235 45.3269 53.1334 45.7858L32.1878 57.9506C30.9259 58.6834 29.4371 58.8623 28.0491 58.4477L11.1667 53.405" stroke="#33817E" stroke-width="4" stroke-linecap="round" stroke-linejoin="round"/>
<path d="M38.1061 18.6667C38.1061 26.0305 32.5061 32 32.5061 32C32.5061 32 26.9062 26.0305 26.9062 18.6667C26.9062 11.3029 32.5061 5.33337 32.5061 5.33337C32.5061 5.33337 38.1061 11.3029 38.1061 18.6667Z" fill="#FECA05"/>
<path d="M32.5054 32C32.5054 32 38.1054 26.0305 38.1054 18.6667C38.1054 11.3029 32.5054 5.33337 32.5054 5.33337C32.5054 5.33337 26.9052 11.3029 26.9052 18.6667C26.9052 26.0305 32.5054 32 32.5054 32ZM32.5054 32C32.5054 32 40.684 31.8176 45.8387 26.5579C50.9931 21.298 51.172 12.9524 51.172 12.9524C51.172 12.9524 47.7867 13.0279 43.9995 14.4824M32.5054 32C32.5054 32 24.3266 31.8176 19.1719 26.5579C14.0173 21.298 13.8386 12.9524 13.8386 12.9524C13.8386 12.9524 17.2238 13.0279 21.011 14.4824" stroke="#33817E" stroke-width="4" stroke-linecap="round" stroke-linejoin="round"/>
</svg>
